/* XPM */
static char * close_active_xpm[] = {
"7 17 3 1",
" 	c None",
".	c #2D2D2D",
"+	c #CCCCCC",
".......",
".......",
".......",
".......",
".......",
".......",
".+++++.",
".+++++.",
".+++++.",
".+++++.",
".+++++.",
".......",
".......",
".......",
".......",
".......",
"......."};
