/* XPM */
static char * hide_pressed_xpm[] = {
"7 17 6 1",
" 	c None",
".	c #2D2D2D",
"+	c #414141",
"@	c #CCCCCC",
"#	c #282828",
"$	c #343434",
".......",
".......",
".......",
".......",
".......",
".......",
".......",
".......",
".......",
"+++++++",
"+@@@@@+",
"+++++++",
"#######",
"#######",
"#######",
"#######",
"$$$$$$$"};
