/* XPM */
static char * maximize_inactive_xpm[] = {
"7 17 4 1",
" 	c None",
".	c #2D2D2D",
"+	c #5F5F5F",
"@	c #343434",
".......",
".......",
".......",
".......",
".......",
".......",
".+++++.",
".+++++.",
".+@@@+.",
".+@@@+.",
".+++++.",
".......",
".......",
".......",
".......",
".......",
"......."};
